<svg xmlns="http://www.w3.org/2000/svg" fill="none" viewBox="0 0 128 25"><g fill="#111" clip-path="url(#a)"><path d="M1.62 22.46a9.43 9.43 0 0 1-1.6-5.72v-8.48a9.56 9.56 0 0 1 1.5-5.82c1.1-1.33 2.8-1.94 5.31-1.94 2.5 0 4.1.61 5.1 1.74a7.43 7.43 0 0 1 1.51 5v2.04h-4.9v-2.35a5.12 5.12 0 0 0-.3-2.04 1.46 1.46 0 0 0-.59-.63 1.42 1.42 0 0 0-.82-.19c-.7 0-1.2.2-1.4.72a6.72 6.72 0 0 0-.3 2.25v10.92a4.3 4.3 0 0 0 .4 2.15c.2.5.7.71 1.4.71s1.1-.2 1.3-.71c.23-.7.33-1.42.3-2.15v-2.45h4.91v2.04a7.92 7.92 0 0 1-1.5 5.11c-1 1.23-2.7 1.84-5.1 1.84-2.41-.1-4.21-.71-5.22-2.04Zm17.73-21.65h5.7l4.21 23.28h-4.6l-.8-4.9h-3.31l-.8 4.9h-4.7l4.3-23.28Zm4.1 15.32-1.2-9.1-1.2 9.1h2.4Zm9.32-11.44h-3.4v-3.88h11.91v3.77h-3.4v19.51h-5.11v-19.4Zm17.62-3.88h8.81v2.45h-5.7v7.66h4.6v2.35h-4.6v8.57h5.7v2.35h-8.91v-23.39h.1Zm11.42 0h2.2l6.51 15.42v-15.42h2.6v23.28h-2l-6.61-15.93v15.93h-2.7v-23.28Zm14.32 0h8.81v2.45h-5.7v7.66h4.6v2.35h-4.6v8.57h5.7v2.35h-8.81v-23.39Zm11.41 0h4.61a7.9 7.9 0 0 1 5.1 1.43c1.1.91 1.6 2.55 1.6 4.7 0 2.95-.9 4.8-2.8 5.4l3.21 11.65h-3.1l-3-10.93h-2.51v10.93h-3.2v-23.18h.1Zm4.41 10a4.31 4.31 0 0 0 2.9-.81c.6-.51.9-1.53.9-3.07a6.72 6.72 0 0 0-.3-2.24 2.58 2.58 0 0 0-1.1-1.23 4.49 4.49 0 0 0-2.2-.4h-1.4v7.65h1.2v.1Zm10.91 11.54a10.48 10.48 0 0 1-1.4-5.92v-7.76a17 17 0 0 1 .5-4.4 5.19 5.19 0 0 1 1.9-2.65 6.44 6.44 0 0 1 3.71-.92c2.1 0 3.6.51 4.5 1.64a7.93 7.93 0 0 1 1.41 5.1v.82h-3v-.71c0-.86-.07-1.71-.2-2.56a2.04 2.04 0 0 0-.8-1.32 3.05 3.05 0 0 0-1.9-.51 2.96 2.96 0 0 0-2.01.6 2.33 2.33 0 0 0-.8 1.64 19.57 19.57 0 0 0-.2 2.76v8.68a9.43 9.43 0 0 0 .6 3.88c.4.82 1.2 1.13 2.4 1.13a2.39 2.39 0 0 0 2.4-1.23 9.57 9.57 0 0 0 .7-4.09v-1.63h-2.9v-2.35h5.81v11.54h-2l-.3-2.65a4.17 4.17 0 0 1-1.56 2.2 4.03 4.03 0 0 1-2.55.76 4.92 4.92 0 0 1-2.4-.47 5.03 5.03 0 0 1-1.9-1.57Zm17.13-6.43-4.9-15.01h3l3.5 11.23 3.4-11.23h3.01l-4.9 15.01v8.17h-3.01v-8.17h-.1Z"/></g><defs><clipPath id="a"><path fill="#fff" d="M0 .5h128v24h-128z"/></clipPath></defs></svg>