<svg xmlns="http://www.w3.org/2000/svg" fill="none" viewBox="0 0 202 59"><g clip-path="url(#a)"><path fill="#FDC305" d="M59.74 23.8a25.42 25.42 0 0 0-8.03-10.37 25.63 25.63 0 0 0-12.16-5.02 25.69 25.69 0 0 0-13.07 1.67 25.54 25.54 0 0 0-10.49 7.92 25.33 25.33 0 0 0-5.13 12.06 25.27 25.27 0 0 0 1.59 13 25.42 25.42 0 0 0 7.9 10.48 25.63 25.63 0 0 0 12.09 5.18 113.22 113.22 0 0 1-1.69-6.8c1.5.98 3.1 1.83 4.75 2.54 0 0 .12 2.14.28 4.53 1.78.03 3.57-.13 5.32-.47a2.1 2.1 0 0 1 0-.75c.29-1.85 1.08-5.2 1.24-7.35a15.1 15.1 0 0 0 2.9-3.68l-.06.44c-.55 4.22-1.7 8.74-2.4 9.99a5.53 5.53 0 0 1-.83 1.14 25.65 25.65 0 0 0 9.92-4.73 25.47 25.47 0 0 0 7-8.43 25.3 25.3 0 0 0 .87-21.34Zm-1.46 3.77c-.44.42-1.35.71-1.5-.58-.15-1.29-.19-2.2-.19-2.2s-1.93-3.4-2.64-3.43c-.72-.04-5.82 3.44-7.17 4.96-1.16 1.28-1.4 1.19-1.4 3.44 0 1.7.23 8.1.1 13l-8.12 2.16a64.17 64.17 0 0 1-7.79 1.7l-1-5.78h-.13l-2.57-13.07s-3.8-1.42-5.2-1.81a3.77 3.77 0 0 0-3.99.62 5 5 0 0 0-1.72 3.82c.2.46.37.95.48 1.44.05.48-1.2.43-2 .43s-.92-1.43-.29-3.1a22.57 22.57 0 0 1 1.82-3.72 11.78 11.78 0 0 1 2.06-2.86s.14-.34 1.25-.24c1.1.1 7.26.42 7.26.42l.05-2.25a143.26 143.26 0 0 1 20.2-1.33v1.82a22.58 22.58 0 0 1 8.12-1.99.91.91 0 0 1 .77.4c.34.42 2.4 2.97 2.64 3.33.67.96 1.28 1.95 1.83 2.98a6.17 6.17 0 0 1-.87 1.83Z"/><path fill="#F06351" d="m56.33 21.5 1 1.28c.67.95 1.28 1.94 1.83 2.97a6.19 6.19 0 0 1-.86 1.77c-.44.42-1.35.71-1.5-.58-.15-1.29-.21-2.14-.21-2.14s-1.93-3.4-2.64-3.44c-.72-.04-5.82 3.44-7.17 4.96-1.16 1.28-1.4 1.19-1.4 3.44 0 1.49.18 6.6.14 11.14 1.8.2 4.46.7 5.25 1.86 0 0-.29-7.12 7.8-3.39 0 0 .28-9.71 11.43-7.22a43.58 43.58 0 0 0-13.67-10.65Zm-10.5-2.3a89.21 89.21 0 0 0-1.4-16.4s-.15-1.3-.87-.24a14.08 14.08 0 0 0-1.2 3.97 71.13 71.13 0 0 0-12.79.33c-.82-2.72-2.21-3.96-2.88-3.64-.67.33-.75 3.26-.75 3.26l-.33 14.04a143.28 143.28 0 0 1 20.21-1.33Z"/><path fill="#E55645" d="M45.25 46.74c.13-1.06.2-2.47.24-4.03l-8.14 2.16a64.15 64.15 0 0 1-7.78 1.75l1.11 4.96c0 .1 0 .22.07.33 1.5.97 3.1 1.82 4.75 2.53a42.36 42.36 0 0 0 6.86-4.1v.06a15.11 15.11 0 0 0 2.89-3.66Z"/><path fill="#000" d="M31.93 16.09c-.05-.1 1 .67 1.4.91.41.24.61.42.61.59 0 .17-.26.33-.62.33s-.91-.12-1-.25c-.07-.14.6 0 .94 0h.3a8.04 8.04 0 0 1-1.63-1.58Zm7.48.1s-1 1.28-1.09 1.34c-.09.06-.17.33.2.28.4-.06.81-.15 1.2-.27.12-.06.08-.2-.11-.18-.2.02-.68.05-1 .1l.85-1.25s.03-.12-.05-.01Zm-3.13 6.07a2.29 2.29 0 0 0 1.08-1c.28-.65 0-.9-.43-.99a2.46 2.46 0 0 0-1.75.34c-.39.37-.34.73 0 1 .34.26.7.48 1.1.65Z"/><path fill="#F06351" d="M35.92 23.5c-.12.23-.27.44-.46.6-.29.23-.64.36-1 .38a2.18 2.18 0 0 1-1.54-.44 2 2 0 0 1-.53-.44 1 1 0 0 0-.35-.25s.74 4.08 2.56 4.73c1.82.66 2.16-.75 2.2-1.13a5.56 5.56 0 0 0-.81-3.21c0-.3-.02-.1-.07-.23Z"/><path fill="#000" d="M34.22 24.64a3.5 3.5 0 0 1-2.34-1.42.15.15 0 0 1 0-.2.14.14 0 0 1 .1-.04.14.14 0 0 1 .1.04 3.2 3.2 0 0 0 2.1 1.3 2.11 2.11 0 0 0 1.64-.99l.14-.19.1.22s.38.75 1 .8c.61.03 1.05-.42 1.62-1.29a.14.14 0 0 1 .24.16c-.66.98-1.3 1.44-1.88 1.4a1.55 1.55 0 0 1-1.12-.72 2.25 2.25 0 0 1-1.7.93Z"/><path fill="#FDC305" d="M36.18 37.99a3.74 3.74 0 0 0 3.74-3.72 3.73 3.73 0 0 0-7.48 0 3.73 3.73 0 0 0 3.74 3.72Z"/><path fill="#111" d="m41.14 31.25-3.13 1.3 1.15-5.59-7.48 9.68 3.12-1.3-1.15 5.6 7.49-9.7Zm-7.38 3.8 4.15-5.37-.8 3.97 1.99-.82-4.18 5.38.8-3.97-1.96.8Zm-1.4-1.46a1.1 1.1 0 1 0 .01-2.22c-.61 0-1.12.5-1.12 1.1 0 .62.5 1.12 1.12 1.12Zm6.51 4.02c.44 0 .79-.35.79-.78a.79.79 0 0 0-.79-.78.79.79 0 0 0-.79.78c0 .43.36.78.8.78Zm.96-2.15a.35.35 0 1 0 0-.7.35.35 0 0 0-.35.35c0 .2.16.35.35.35Z"/><path fill="#F06351" d="M45.77 20.99a57.14 57.14 0 0 0-5.07 5.17 31.74 31.74 0 0 1-5.3 4.86c-.22-.53-1.63-1.51-1.63-1.51s-3.13-2.13-5.19-3.81a31.74 31.74 0 0 1-3.13-2.98l-2-.1a22.57 22.57 0 0 0 11.98 8.76c.86-.14 3.27-1.85 5.08-3.25a57.36 57.36 0 0 0 5.98-5.86 6.32 6.32 0 0 0 1.14-1.99c-1.14.38-1.85.7-1.85.7Z"/><path fill="#FDC305" d="m65.07 3.47-8.44 9.37-1.22-1.98 8.13-10.86 1.53 3.47Zm-2.56 13.65 5.52-4.08-.77-3.7-5.4 4.76.65 3.02Zm-2.73 31.85 6.12 3.16 3-2.32-6.67-2.73-2.45 1.9Zm-57.84-43.05 3.07-3.33 9.27 8.93-1.22 2.26-11.12-7.86Zm5.42 10.23-4.69-3.1-2.39 3.83 5.14 2.38 1.94-3.11Zm6.52 35.98-4.54 3.32 2.8 3.55 4-3.99-2.26-2.88Z"/><path fill="#F06351" d="M25.87 27.77s-3.8-1.42-5.2-1.81a3.77 3.77 0 0 0-3.99.62 5 5 0 0 0-1.72 3.82c.2.46.37.95.48 1.44.05.48-1.2.43-2 .43s-.92-1.43-.3-3.1a22.57 22.57 0 0 1 1.83-3.72c-5.44 2.82-14.97 9.33-14.97 9.33a45.98 45.98 0 0 1 8.17.23c5.24.53 4.99 4.64 4.99 4.64a38.75 38.75 0 0 1 5.62-1.1c2.11-.14 2.26 2.1 2.26 2.1l.53 3.83a18.22 18.22 0 0 1 2.65-2.34 6.07 6.07 0 0 1 4.37-1.3l-2.72-13.07Z"/><path fill="#111" d="M85.42 38.22a7.92 7.92 0 0 1-1.4-5.06v-7.32a8.04 8.04 0 0 1 1.38-5.1c.93-1.17 2.52-1.75 4.76-1.74 2.25 0 3.77.52 4.56 1.53a6.43 6.43 0 0 1 1.34 4.38v1.71h-4.15v-1.86a9.5 9.5 0 0 0-.13-1.46 1.62 1.62 0 0 0-.47-.93 1.58 1.58 0 0 0-1.16-.36 1.5 1.5 0 0 0-.87.14 1.4 1.4 0 0 0-.63.6 5.2 5.2 0 0 0-.34 2.14v9.28a4.55 4.55 0 0 0 .39 2.15 1.48 1.48 0 0 0 1.45.7 1.34 1.34 0 0 0 1.4-.72c.25-.68.35-1.4.32-2.13v-1.95h4.14v1.69a6.92 6.92 0 0 1-1.23 4.5c-.88 1.06-2.4 1.59-4.57 1.59s-3.85-.58-4.79-1.78Zm16.29-18.94h4.75l4 20.48h-3.94l-.71-4.53h-3.33l-.8 4.5h-4.01l4.04-20.45Zm3.65 13.38-1.26-8.23-1.25 8.23h2.51Zm8.18-10.3h-3.25v-3.08h10.74v3.08h-3.2v17.37h-4.3l.01-17.37Z"/><path fill="#444" d="M129.46 19.28h8.15v2.13h-5.21v6.75h4.23v2.02h-4.23v7.5h5.26v2.05h-8.2v-20.45Zm10.56 0h2l6.02 13.58v-13.58h2.45v20.48h-1.88l-6.01-13.96v13.93h-2.48l-.1-20.45Zm13.7 0h8.14v2.13h-5.21v6.75h4.27v2.02h-4.23v7.5h5.23v2.05h-8.2v-20.45Zm10.55 0h4.23a7.16 7.16 0 0 1 4.68 1.28c1 .85 1.5 2.23 1.5 4.15 0 2.6-.87 4.2-2.6 4.77l3 10.25h-2.84l-2.76-9.6h-2.27v9.6h-2.94v-20.45Zm4.01 8.78c.97.09 1.93-.18 2.7-.74a3.47 3.47 0 0 0 .83-2.65 5.55 5.55 0 0 0-.3-1.95 1.83 1.83 0 0 0-.38-.62 1.9 1.9 0 0 0-.61-.43 4.89 4.89 0 0 0-2.06-.34h-1.29v6.77l1.11-.04Zm10.34 10.16a8.82 8.82 0 0 1-1.27-5.22v-6.83a12.86 12.86 0 0 1 .5-3.9 4.38 4.38 0 0 1 1.75-2.34 6.05 6.05 0 0 1 3.36-.82 5.4 5.4 0 0 1 2.26.27c.72.25 1.38.65 1.93 1.17a6.69 6.69 0 0 1 1.28 4.51v.76h-2.75v-.63a10.93 10.93 0 0 0-.18-2.26 1.95 1.95 0 0 0-.76-1.2 3.07 3.07 0 0 0-1.73-.4 2.57 2.57 0 0 0-1.81.55 2.47 2.47 0 0 0-.77 1.44 14.1 14.1 0 0 0-.17 2.43v7.6a7.16 7.16 0 0 0 .59 3.36c.27.33.61.6 1 .77a2.9 2.9 0 0 0 2.5-.05c.38-.19.72-.47.98-.8a7.72 7.72 0 0 0 .6-3.56v-1.44h-2.66v-2.02h5.31v10.12h-1.81l-.3-2.35a3.6 3.6 0 0 1-1.4 1.93 3.77 3.77 0 0 1-2.33.67 4.79 4.79 0 0 1-2.3-.37 4.65 4.65 0 0 1-1.82-1.4Zm16.06-5.7-4.54-13.24h2.72l3.22 9.87 3.17-9.87h2.75l-4.5 13.23v7.22h-2.82v-7.22Z"/></g><defs><clipPath id="a"><path fill="#fff" d="M0 0h202v59h-202z"/></clipPath></defs></svg>